<?xml version="1.0" encoding="utf-8"?>
<!-- Generator: Adobe Illustrator 25.0.1, SVG Export Plug-In . SVG Version: 6.00 Build 0)  -->
<svg version="1.1" id="Layer_1" xmlns="http://www.w3.org/2000/svg" xmlns:xlink="http://www.w3.org/1999/xlink" x="0px" y="0px"
	 viewBox="0 0 110 64" style="enable-background:new 0 0 110 64;" xml:space="preserve">
<style type="text/css">
	.st0{fill:#19AE4A;}
	.st1{fill:#8EE16A;}
	.st2{fill:#F0EFE8;}
</style>
<g id="Group_916" transform="translate(149.812 165.41)">
	<g id="Group_914-3" transform="translate(178.188 376.649)">
		<g id="Group_471-3" transform="translate(3.34)">
			<path id="Path_429-3" class="st0" d="M-222.3-533.2l-8.2-8c-1.3-1.2-3.3-1.2-4.6,0l-8.2,8c-1.2,1.2-1.2,3.1,0,4.3s3.2,1.2,4.5,0
				l3-2.9c-1.8,9.7-6.9,18.7-15.2,26.5c-17.6,16.5-46.3,24.2-74.9,20.1c-1.7-0.3-3.4,0.9-3.6,2.6c-0.3,1.7,0.9,3.2,2.6,3.5
				c0,0,0,0,0.1,0c5.3,0.8,10.7,1.1,16.1,1.1c24.9,0,48.6-8.2,64.2-22.9c5.3-4.9,9.7-10.7,12.8-17.1c2.1-4.2,3.5-8.7,4.3-13.3
				l2.6,2.5c1.2,1.2,3.2,1.2,4.5,0C-221.1-530-221-532-222.3-533.2L-222.3-533.2L-222.3-533.2z"/>
			<path id="Path_430-3" class="st1" d="M-222.3-533.2l-8.1-8c-1.3-1.2-3.3-1.2-4.6,0l-8.1,8c-1.2,1.2-1.2,3.1,0,4.3s3.2,1.2,4.4,0
				l0,0l3-2.9c-1.7,9.7-6.9,18.7-15.1,26.5c-7,6.4-15.2,11.5-24.1,14.9v6.5c10.6-3.7,20.3-9.5,28.5-17c5.3-4.9,9.6-10.7,12.7-17.1
				c2.1-4.2,3.5-8.7,4.3-13.4l2.6,2.5c1.2,1.2,3.2,1.2,4.4,0l0,0C-221-530-221-532-222.3-533.2L-222.3-533.2z"/>
		</g>
		<g id="Group_917" transform="translate(8.678 -8.709)">
			<path id="Path_458" class="st2" d="M-292-513.4c-5.6,0-10.1,4.4-10.1,9.8c0,2.9,1.3,5.6,3.6,7.5c4,3.4,10,3.1,13.7-0.6
				c4-3.8,3.9-10.1,0-13.9C-286.8-512.3-289.4-513.3-292-513.4L-292-513.4z"/>
			<path id="Path_460" class="st2" d="M-305.8-520.5v-2.9c0-0.9-0.7-1.5-1.6-1.5h-20.4c-0.9,0-1.6,0.7-1.6,1.5l0,0v2.9
				c0,0.9,0.7,1.5,1.6,1.5l0,0h20.4C-306.5-518.9-305.8-519.6-305.8-520.5z"/>
			<path id="Path_461" class="st2" d="M-321-510.7h19.4c0.8-0.8,1.7-1.5,2.6-2v-2.4c0-0.9-0.7-1.5-1.6-1.5l0,0H-321
				c-0.9,0-1.6,0.7-1.6,1.5v2.9C-322.6-511.4-321.9-510.7-321-510.7L-321-510.7z"/>
			<path id="Path_462" class="st2" d="M-304.9-500.4H-321c-0.9,0-1.6,0.7-1.6,1.5v3.6c0,0.9,0.7,1.5,1.6,1.5l0,0h20.4
				C-302.7-495.4-304.2-497.8-304.9-500.4z"/>
			<path id="Path_463" class="st2" d="M-303.9-508.5H-321c-0.9,0-1.6,0.7-1.6,1.5v2.9c0,0.9,0.7,1.5,1.6,1.5l0,0h15.6
				C-305.4-504.6-304.8-506.7-303.9-508.5L-303.9-508.5z"/>
			<path id="Path_464" class="st2" d="M-327.8-527.1h20.4c0.9,0,1.6-0.7,1.6-1.5l0,0v-2.9c0-0.9-0.7-1.5-1.6-1.5l0,0h-20.4
				c-0.9,0-1.6,0.7-1.6,1.5l0,0c0,0.6,0,1.6,0,2.9C-329.4-527.8-328.7-527.1-327.8-527.1L-327.8-527.1z"/>
		</g>
	</g>
</g>
</svg>
