<?xml version="1.0" encoding="utf-8"?>
<!-- Generator: Adobe Illustrator 25.0.1, SVG Export Plug-In . SVG Version: 6.00 Build 0)  -->
<svg version="1.1" id="Layer_1" xmlns="http://www.w3.org/2000/svg" xmlns:xlink="http://www.w3.org/1999/xlink" x="0px" y="0px"
	 viewBox="0 0 110 64" style="enable-background:new 0 0 110 64;" xml:space="preserve">
<style type="text/css">
	.st0{fill:#D3CEB8;}
	.st1{fill:#AAA793;}
	.st2{fill:#19AE4A;}
	.st3{fill:#8EE16A;}
	.st4{fill:#F0EFE8;}
</style>
<g id="Group_915" transform="translate(-107.188 165.41)">
	<g id="Group_914" transform="translate(178.188 376.649)">
		<g id="Group_471" transform="translate(3.34)">
			<path id="Path_429" class="st0" d="M34.7-533.2l-8.1-8c-1.3-1.2-3.3-1.2-4.6,0l-8.1,8c-1.2,1.2-1.2,3.1,0,4.3s3.2,1.2,4.4,0
				l3-2.9c-1.7,9.7-6.8,18.7-15,26.5c-17.3,16.5-45.7,24.2-73.9,20.1c-1.7-0.3-3.3,0.9-3.6,2.6c-0.3,1.7,0.9,3.2,2.6,3.5
				c0,0,0,0,0.1,0c5.2,0.8,10.5,1.1,15.8,1.1c24.6,0,47.9-8.2,63.3-22.9c5.2-4.9,9.5-10.7,12.6-17.1c2-4.2,3.5-8.7,4.2-13.3l2.6,2.5
				c1.2,1.2,3.2,1.2,4.4,0C36-530,36-532,34.7-533.2L34.7-533.2L34.7-533.2z"/>
			<path id="Path_430" class="st1" d="M34.5-533.2l-8-8c-1.3-1.2-3.3-1.2-4.5,0l-8,8c-1.2,1.2-1.2,3.1,0,4.3s3.2,1.2,4.4,0l0,0
				l3-2.9c-1.7,9.7-6.8,18.7-14.8,26.5c-6.9,6.4-15,11.5-24.1,14.8v6.5c10.8-3.6,20.4-9.4,28.4-16.9c5.2-4.9,9.5-10.7,12.5-17.1
				c2-4.2,3.4-8.7,4.2-13.4l2.5,2.5c1.2,1.2,3.1,1.2,4.4,0l0,0C35.7-530,35.7-532,34.5-533.2L34.5-533.2z"/>
		</g>
		<g id="Group_473" transform="translate(0 6.367)">
			<g id="Group_472">
				<path id="Path_431" class="st1" d="M-28.8-524.4L-48-541.6c-0.8-0.8-2.1-0.8-3,0l-19.2,17.2c-0.9,0.8-1,2.2-0.1,3.1
					c0.4,0.4,1,0.7,1.6,0.7h3.1v17.2c0,0.7,0.6,1.2,1.3,1.2l0,0h10.5c0.7,0,1.3-0.6,1.3-1.2l0,0v-10.5h6.2v10.5
					c0,0.7,0.6,1.2,1.3,1.2h10.5c0.7,0,1.3-0.6,1.3-1.2v-17.2h3.1c1.2,0,2.2-1,2.2-2.2C-28.1-523.4-28.4-524-28.8-524.4L-28.8-524.4
					z"/>
			</g>
		</g>
	</g>
</g>
<g id="Group_929" transform="translate(-107.188 550.41)">
	<g id="Group_914-2" transform="translate(178.188 376.649)">
		<g id="Group_471-2" transform="translate(3.34)">
			<path id="Path_429-2" class="st2" d="M281.8-918.2l-8-8c-1.3-1.2-3.3-1.2-4.5,0l-8,8c-1.2,1.2-1.2,3.2,0,4.4
				c1.2,1.2,3.2,1.2,4.4,0l3-3c-1.7,9.7-6.8,18.9-14.9,26.7c-17.3,16.6-45.5,24.4-73.7,20.2c-1.7-0.3-3.3,0.9-3.6,2.6
				c-0.3,1.7,0.9,3.3,2.6,3.5c0,0,0,0,0.1,0c5.2,0.8,10.5,1.1,15.8,1.1c24.5,0,47.8-8.3,63.1-23.1c5.2-4.9,9.5-10.8,12.6-17.3
				c2-4.3,3.5-8.8,4.2-13.4l2.6,2.6c1.2,1.2,3.2,1.2,4.4,0C283-915.1,283-917,281.8-918.2L281.8-918.2L281.8-918.2z"/>
			<path id="Path_430-2" class="st3" d="M281.8-918.2l-8-8c-1.3-1.2-3.2-1.2-4.5,0l-8,8c-1.2,1.2-1.2,3.2,0,4.4
				c1.2,1.2,3.1,1.2,4.3,0c0,0,0,0,0,0l2.9-3c-1.7,9.8-6.8,18.9-14.8,26.7c-6.8,6.5-14.9,11.6-23.7,15v6.6c10.5-3.7,20-9.5,28-17.1
				c5.2-5,9.4-10.8,12.5-17.3c2-4.3,3.4-8.8,4.2-13.5l2.5,2.6c1.2,1.2,3.1,1.2,4.3,0c0,0,0,0,0,0C283-915,283-917,281.8-918.2
				L281.8-918.2z"/>
		</g>
		<g id="Group_473-2" transform="translate(0 6.367)">
			<g id="Group_472-2">
				<path id="Path_431-2" class="st4" d="M218.4-909.3l-19.2-17.3c-0.8-0.8-2.1-0.8-3,0l-19.2,17.3c-0.9,0.8-1,2.2-0.1,3.1
					c0.4,0.5,1,0.7,1.6,0.7h3.1v17.4c0,0.7,0.6,1.2,1.3,1.2c0,0,0,0,0,0h10.5c0.7,0,1.3-0.6,1.3-1.2c0,0,0,0,0,0v-10.6h6.2v10.6
					c0,0.7,0.6,1.2,1.3,1.2h10.5c0.7,0,1.3-0.6,1.3-1.2v-17.4h3.1c1.2,0,2.2-1,2.2-2.2C219.1-908.3,218.9-908.9,218.4-909.3
					L218.4-909.3z"/>
			</g>
		</g>
	</g>
</g>
</svg>
