<?xml version="1.0" encoding="utf-8"?>
<!-- Generator: Adobe Illustrator 25.0.1, SVG Export Plug-In . SVG Version: 6.00 Build 0)  -->
<svg version="1.1" id="Layer_1" xmlns="http://www.w3.org/2000/svg" xmlns:xlink="http://www.w3.org/1999/xlink" x="0px" y="0px"
	 viewBox="0 0 110 64" style="enable-background:new 0 0 110 64;" xml:space="preserve">
<style type="text/css">
	.st0{fill:#D3CEB8;}
	.st1{fill:#AAA793;}
</style>
<g id="Group_925" transform="translate(-91.078 165.41)">
	<g id="Group_923">
		<g id="Group_489" transform="translate(1194.078 373.908)">
			<path id="Path_450" class="st0" d="M-1041.3-483h-37.3c-1.1,0-2,0.9-2,1.9c0,0.3,0.1,0.7,0.3,1c1.7,2.9,4.9,4.7,8.4,4.7h32.6
				c-1.3-1.7-2-3.7-2-5.8V-483z"/>
			<path id="Path_451" class="st0" d="M-1072.6-531.8v45.3h35.2v5.6c0.1,3.2,2.7,5.7,6,5.6c3.1-0.1,5.6-2.5,5.7-5.6v-54.6
				c0-1.3,0.4-2.6,1.1-3.8h-40.2C-1069-539.4-1072.5-536-1072.6-531.8z"/>
			<path id="Path_452" class="st0" d="M-1015.5-520.1v-15.3c-0.1-2.1-1.9-3.8-4.1-3.7c-2,0.1-3.6,1.7-3.7,3.7v15.3H-1015.5"/>
		</g>
	</g>
	<g id="Group_924" transform="translate(1206.448 381.648)">
		<path id="Path_453" class="st1" d="M-1044.3-499h-33.8c-1.3,0-2.4-1.1-2.4-2.4c0-1.3,1.1-2.4,2.4-2.4h33.8c1.3,0,2.4,1.1,2.4,2.4
			C-1041.9-500.1-1042.9-499-1044.3-499z"/>
		<ellipse id="Ellipse_10" class="st1" cx="-1068.5" cy="-537.1" rx="2.4" ry="2.4"/>
		<path id="Path_454" class="st1" d="M-1070.2-524.5l14.4-14.2c0.9-0.9,2.5-0.9,3.4,0c0.9,0.9,0.9,2.4,0,3.3l0,0l-14.4,14.2
			c-0.9,0.9-2.5,0.9-3.4,0C-1071.1-522.1-1071.1-523.6-1070.2-524.5L-1070.2-524.5L-1070.2-524.5z"/>
		<ellipse id="Ellipse_11" class="st1" cx="-1054.1" cy="-522.9" rx="2.4" ry="2.4"/>
		<path id="Path_455" class="st1" d="M-1078.1-513.2h33.8c1.3,0,2.4,1.1,2.4,2.4c0,1.3-1.1,2.4-2.4,2.4h-33.8
			c-1.3,0-2.4-1.1-2.4-2.4C-1080.5-512.2-1079.4-513.2-1078.1-513.2z"/>
	</g>
</g>
</svg>
