<svg xmlns="http://www.w3.org/2000/svg" width="112.064" height="75.093" viewBox="0 0 112.064 75.093"><defs><style>.a{fill:#8ee16a;}.b{fill:#1aaf4b;}.c{fill:#1d1751;}</style></defs><g transform="translate(-7311.715 -151.097)"><path class="a" d="M7422.825,167.146l-8.474-8.529a3.445,3.445,0,0,0-4.786,0l-8.474,8.529a3.285,3.285,0,1,0,4.66,4.63l3.125-3.145c-1.827,10.359-7.185,20.05-15.732,28.33-18.215,17.644-47.974,25.886-77.664,21.509a3.285,3.285,0,1,0-.958,6.5,114.037,114.037,0,0,0,16.64,1.221c25.847,0,50.356-8.822,66.553-24.511A62.77,62.77,0,0,0,7411,183.348a53.983,53.983,0,0,0,4.464-14.29l2.7,2.718a3.285,3.285,0,0,0,4.66-4.63Z"/><path class="b" d="M7422.825,167.146l-8.474-8.529a3.445,3.445,0,0,0-4.786,0l-8.474,8.529a3.285,3.285,0,1,0,4.66,4.63l3.125-3.145c-1.827,10.359-7.185,20.05-15.732,28.33a76.506,76.506,0,0,1-25.221,15.9v7.006a83.969,83.969,0,0,0,29.792-18.187A62.77,62.77,0,0,0,7411,183.348a54.022,54.022,0,0,0,4.465-14.29l2.7,2.718a3.285,3.285,0,0,0,4.66-4.63Z"/><path class="c" d="M7351.1,186.792a10.577,10.577,0,0,0-10.564,10.563,10.684,10.684,0,0,0,3.726,8.117,10.419,10.419,0,0,0,14.317-.6,10.6,10.6,0,0,0-7.479-18.078Z"/><path class="c" d="M7343.869,156.657v-3.892a1.668,1.668,0,0,0-1.668-1.668h-21.35a1.668,1.668,0,0,0-1.668,1.668v3.892a1.668,1.668,0,0,0,1.668,1.668h21.35A1.668,1.668,0,0,0,7343.869,156.657Z"/><path class="c" d="M7336.752,176.228v-3.114a1.668,1.668,0,0,0-1.668-1.668h-21.35a1.668,1.668,0,0,0-1.668,1.668v3.114a1.668,1.668,0,0,0,1.668,1.668h21.35A1.668,1.668,0,0,0,7336.752,176.228Z"/><path class="c" d="M7320.851,187.681h20.276a13.957,13.957,0,0,1,2.742-2.193V182.9a1.668,1.668,0,0,0-1.668-1.668h-21.35a1.668,1.668,0,0,0-1.668,1.668v3.113A1.668,1.668,0,0,0,7320.851,187.681Z"/><path class="c" d="M7337.624,200.8h-16.773a1.668,1.668,0,0,0-1.668,1.668v3.892a1.668,1.668,0,0,0,1.668,1.668h21.267A14.047,14.047,0,0,1,7337.624,200.8Z"/><path class="c" d="M7338.73,191.017h-17.879a1.668,1.668,0,0,0-1.668,1.668V195.8a1.668,1.668,0,0,0,1.668,1.668H7337.2a13.81,13.81,0,0,1,1.532-6.45Z"/><path class="c" d="M7313.734,168.11h21.35a1.668,1.668,0,0,0,1.668-1.668v-3.113a1.668,1.668,0,0,0-1.668-1.668h-21.35a1.668,1.668,0,0,0-1.668,1.668v3.113a1.668,1.668,0,0,0,1.668,1.668Z"/></g></svg>