<svg xmlns="http://www.w3.org/2000/svg" width="75.975" height="101.572" viewBox="0 0 75.975 101.572"><defs><style>.a{fill:#1d1751;}.b{fill:#fff;}.c{fill:#1aaf4b;}.d{fill:#8ee16a;}</style></defs><g transform="translate(-10300.287 -142.139)"><path class="a" d="M10322.274,159.19v.031a16.918,16.918,0,1,0,33.834-.267v-.03l-16.928-1.1Z"/><path class="a" d="M10322.274,159.19l33.834-.266a16.918,16.918,0,1,0-33.834.266Z"/><path class="b" d="M10334.813,167.558a1.844,1.844,0,0,0,2.644-1.211,1.846,1.846,0,0,1,3.583-.028,1.845,1.845,0,0,0,2.662,1.17,9.517,9.517,0,0,0,5.023-8.476l-9.544-1.157-9.525,1.307A9.515,9.515,0,0,0,10334.813,167.558Z"/><path class="b" d="M10348.726,159.013a9.516,9.516,0,0,0-5.156-8.4,1.846,1.846,0,0,0-2.645,1.211,1.845,1.845,0,0,1-3.582.029,1.846,1.846,0,0,0-2.663-1.17,9.516,9.516,0,0,0-5.023,8.476"/><path class="a" d="M10320.743,226.865c0,.021,0,.041,0,.062a16.918,16.918,0,0,0,33.835-.266V226.6l-16.927-1.1Z"/><path class="a" d="M10320.742,226.865l33.834-.266a16.918,16.918,0,1,0-33.834.266Z"/><path class="b" d="M10333.281,235.265a1.846,1.846,0,0,0,2.644-1.212,1.846,1.846,0,0,1,3.583-.028,1.846,1.846,0,0,0,2.663,1.17,9.52,9.52,0,0,0,5.024-8.476l-9.545-1.156-9.525,1.306A9.519,9.519,0,0,0,10333.281,235.265Z"/><path class="b" d="M10339.394,219.534a1.846,1.846,0,0,1-3.583.029,1.843,1.843,0,0,0-2.661-1.17,9.516,9.516,0,0,0-5.025,8.476l19.071-.15a9.517,9.517,0,0,0-5.157-8.4,1.846,1.846,0,0,0-2.645,1.211Z"/><path class="c" d="M10303.324,163.256a2.742,2.742,0,1,0,.449,5.465l3.188-.262a45.042,45.042,0,0,0-4.912,11.492,52.369,52.369,0,0,0-1.5,18.838,68.607,68.607,0,0,0,7.124,24.071,2.741,2.741,0,0,0,4.537.572h0a2.757,2.757,0,0,0,.352-3.026,63.172,63.172,0,0,1-6.554-22.134c-.937-9.889.914-18.946,5.37-26.513l.279,3.691a2.742,2.742,0,0,0,2.81,2.535,2.849,2.849,0,0,0,2.647-3.1l-.746-9.86a2.875,2.875,0,0,0-3.038-2.594l-10,.821Z"/><path class="d" d="M10373.224,223.558a2.742,2.742,0,0,0-.448-5.465l-3.187.262a45.074,45.074,0,0,0,4.911-11.492,52.369,52.369,0,0,0,1.5-18.838,68.588,68.588,0,0,0-7.125-24.071,2.741,2.741,0,0,0-4.537-.572h0a2.755,2.755,0,0,0-.351,3.026,63.17,63.17,0,0,1,6.553,22.134c.938,9.889-.914,18.946-5.369,26.513l-.279-3.691a2.742,2.742,0,0,0-2.81-2.535,2.848,2.848,0,0,0-2.646,3.1l.744,9.86a2.877,2.877,0,0,0,3.038,2.594l10-.821Z"/></g></svg>