<svg xmlns="http://www.w3.org/2000/svg" width="85.005" height="51.99" viewBox="0 0 85.005 51.99"><defs><style>.a{fill:#8ee16a;}.b{fill:#1aaf4b;}</style></defs><g transform="translate(-150.939 -23.107)"><path class="a" d="M3499.24,7141.943l-6.427-6.47a2.617,2.617,0,0,0-3.63,0l-6.428,6.47a2.492,2.492,0,0,0,3.536,3.513l2.37-2.386c-1.386,7.857-5.45,15.209-11.933,21.488-13.815,13.383-36.389,19.635-58.908,16.318a2.492,2.492,0,1,0-.79,4.921l.063.01a86.525,86.525,0,0,0,12.622.925c19.6,0,38.195-6.69,50.479-18.592a47.588,47.588,0,0,0,10.077-13.9,40.979,40.979,0,0,0,3.387-10.837l2.048,2.061a2.492,2.492,0,0,0,3.534-3.513Z" transform="translate(-3263.993 -7111.635)"/><path class="b" d="M3513.833,7141.943l-6.427-6.47a2.618,2.618,0,0,0-3.631,0l-6.428,6.47a2.492,2.492,0,0,0,3.536,3.513l2.371-2.386c-1.386,7.857-5.45,15.209-11.933,21.488a57.993,57.993,0,0,1-19.131,12.059v5.314a63.675,63.675,0,0,0,22.6-13.794,47.578,47.578,0,0,0,10.076-13.905,40.908,40.908,0,0,0,3.387-10.839l2.049,2.063a2.491,2.491,0,0,0,3.534-3.512Z" transform="translate(-3278.585 -7111.635)"/></g></svg>