<svg xmlns="http://www.w3.org/2000/svg" width="188.507" height="50.524" viewBox="0 0 188.507 50.524">
  <g id="Adventum_Calc_Logo" data-name="Adventum Calc Logo" transform="translate(1457.034 -23.476)">
    <g id="Group_65" data-name="Group 65">
      <g id="Group_64" data-name="Group 64">
        <path id="Path_95" data-name="Path 95" d="M-1454.53,72.448a5.2,5.2,0,0,1-1.583-3.9,5.2,5.2,0,0,1,1.583-3.9,5.339,5.339,0,0,1,3.868-1.537,5.46,5.46,0,0,1,3.15.939,4.891,4.891,0,0,1,1.923,2.6h-3.089a2.035,2.035,0,0,0-1.938-1.166,2.709,2.709,0,0,0-2.1.833,3.167,3.167,0,0,0-.764,2.226,3.165,3.165,0,0,0,.764,2.226,2.706,2.706,0,0,0,2.1.833,2.035,2.035,0,0,0,1.938-1.166h3.089a4.89,4.89,0,0,1-1.923,2.6,5.46,5.46,0,0,1-3.15.938A5.339,5.339,0,0,1-1454.53,72.448Z" fill="gray"/>
        <path id="Path_96" data-name="Path 96" d="M-1434.853,73.895l-.591-1.788h-3.815l-.591,1.788h-2.756l3.695-10.661h3.149l3.68,10.661Zm-3.756-3.756h2.514l-1.257-3.785Z" fill="gray"/>
        <path id="Path_97" data-name="Path 97" d="M-1428.493,63.265h2.589v8.661h3.225v1.969h-5.814Z" fill="gray"/>
        <path id="Path_98" data-name="Path 98" d="M-1417.962,72.448a5.2,5.2,0,0,1-1.582-3.9,5.2,5.2,0,0,1,1.582-3.9,5.343,5.343,0,0,1,3.869-1.537,5.463,5.463,0,0,1,3.15.939,4.9,4.9,0,0,1,1.923,2.6h-3.089a2.035,2.035,0,0,0-1.939-1.166,2.707,2.707,0,0,0-2.1.833,3.163,3.163,0,0,0-.765,2.226,3.161,3.161,0,0,0,.765,2.226,2.7,2.7,0,0,0,2.1.833,2.035,2.035,0,0,0,1.939-1.166h3.089a4.9,4.9,0,0,1-1.923,2.6,5.462,5.462,0,0,1-3.15.938A5.343,5.343,0,0,1-1417.962,72.448Z" fill="gray"/>
        <path id="Path_99" data-name="Path 99" d="M-1405.083,69.609V63.265h2.589v6.344a2.1,2.1,0,0,0,.469,1.469,1.773,1.773,0,0,0,1.378.514,1.821,1.821,0,0,0,1.393-.514,2.063,2.063,0,0,0,.485-1.469V63.265h2.59v6.344a4.387,4.387,0,0,1-.659,2.43,3.958,3.958,0,0,1-1.666,1.492,5.113,5.113,0,0,1-2.188.469,4.479,4.479,0,0,1-3.119-1.15A4.146,4.146,0,0,1-1405.083,69.609Z" fill="gray"/>
        <path id="Path_100" data-name="Path 100" d="M-1391.652,63.265h2.589v8.661h3.225v1.969h-5.814Z" fill="gray"/>
        <path id="Path_101" data-name="Path 101" d="M-1375.329,73.895l-.591-1.788h-3.815l-.591,1.788h-2.756l3.7-10.661h3.149l3.68,10.661Zm-3.755-3.756h2.514l-1.257-3.785Z" fill="gray"/>
        <path id="Path_102" data-name="Path 102" d="M-1369.7,65.233V63.265h8.389v1.968h-2.908v8.662h-2.589V65.233Z" fill="gray"/>
        <path id="Path_103" data-name="Path 103" d="M-1356.484,72.456a5.23,5.23,0,0,1-1.583-3.907,5.2,5.2,0,0,1,1.583-3.9,5.349,5.349,0,0,1,3.876-1.537,5.3,5.3,0,0,1,3.861,1.537,5.227,5.227,0,0,1,1.567,3.9,5.241,5.241,0,0,1-1.574,3.907A5.3,5.3,0,0,1-1352.616,74,5.324,5.324,0,0,1-1356.484,72.456Zm5.905-1.681a3.161,3.161,0,0,0,.765-2.226,3.163,3.163,0,0,0-.765-2.226,2.642,2.642,0,0,0-2.044-.833,2.644,2.644,0,0,0-2.045.833,3.167,3.167,0,0,0-.764,2.226,3.165,3.165,0,0,0,.764,2.226,2.64,2.64,0,0,0,2.045.833A2.638,2.638,0,0,0-1350.579,70.775Z" fill="gray"/>
        <path id="Path_104" data-name="Path 104" d="M-1340.607,69.761v4.134h-2.59V63.265h4.2a4.074,4.074,0,0,1,2.877.953,3.028,3.028,0,0,1,1.029,2.3,3.316,3.316,0,0,1-.56,1.8,3.06,3.06,0,0,1-1.832,1.242l2.6,4.331h-3.029l-2.393-4.134Zm0-4.528v2.56H-1339a1.243,1.243,0,0,0,.931-.349,1.255,1.255,0,0,0,.341-.916,1.286,1.286,0,0,0-.349-.931,1.217,1.217,0,0,0-.923-.364Z" fill="gray"/>
        <path id="Path_105" data-name="Path 105" d="M-1327.16,65.158a1.2,1.2,0,0,0-.8.257.91.91,0,0,0-.31.742,1.069,1.069,0,0,0,.287.78,1.885,1.885,0,0,0,.75.454q.462.159,1.03.3a11.792,11.792,0,0,1,1.128.348,5.048,5.048,0,0,1,1.022.507,2.239,2.239,0,0,1,.749.855,2.83,2.83,0,0,1,.288,1.326,2.967,2.967,0,0,1-1.1,2.309A4.231,4.231,0,0,1-1327,74a4.549,4.549,0,0,1-2.892-.863,2.935,2.935,0,0,1-1.1-2.452h2.756a1.2,1.2,0,0,0,1.3,1.271,1.238,1.238,0,0,0,.878-.295.979.979,0,0,0,.318-.75,1,1,0,0,0-.287-.741,2,2,0,0,0-.749-.454c-.309-.112-.652-.215-1.03-.312a10.014,10.014,0,0,1-1.129-.355,5.561,5.561,0,0,1-1.022-.507,2.167,2.167,0,0,1-.749-.848,2.8,2.8,0,0,1-.288-1.311,2.9,2.9,0,0,1,1.106-2.377,4.35,4.35,0,0,1,2.824-.893,4.574,4.574,0,0,1,2.778.78,2.96,2.96,0,0,1,1.106,2.461h-2.817a1.415,1.415,0,0,0-.371-.886A1.074,1.074,0,0,0-1327.16,65.158Z" fill="gray"/>
      </g>
    </g>
    <g id="Group_71" data-name="Group 71">
      <g id="Group_69" data-name="Group 69">
        <g id="Group_68" data-name="Group 68">
          <g id="Group_67" data-name="Group 67">
            <path id="Path_106" data-name="Path 106" d="M-1279.648,52.007h-4.12V44.172l-.114-.023c-.1.186-.21.369-.3.559-.994,2.067-1.993,4.13-2.969,6.2a.641.641,0,0,1-.7.442c-.635-.026-1.273-.03-1.908,0a.683.683,0,0,1-.741-.474c-.97-2.055-1.961-4.1-2.947-6.147a1.41,1.41,0,0,0-.378-.513V51.96h-4.393V34.724c1.409,0,2.8-.016,4.187.023.157,0,.357.3.448.495q2.12,4.6,4.211,9.215c.161.353.328.7.543,1.165.382-.828.727-1.569,1.067-2.313,1.235-2.7,2.475-5.395,3.7-8.1a.72.72,0,0,1,.787-.5c1.208.043,2.418.038,3.628.052Z" fill="#1d1751"/>
            <path id="Path_107" data-name="Path 107" d="M-1457.034,51.884c.9-2.191,1.815-4.379,2.709-6.573q2.05-5.034,4.073-10.078a.687.687,0,0,1,.761-.525c1.128.033,2.258.027,3.387,0a.6.6,0,0,1,.662.464q3.332,8.291,6.685,16.573c.022.054.032.114.071.26h-3.5c-1.321,0-1.321,0-1.774-1.24-.473-1.293-.473-1.293-1.856-1.293-1.642,0-3.285.009-4.927-.008a.585.585,0,0,0-.676.452c-.181.565-.427,1.108-.615,1.671a.551.551,0,0,1-.629.426c-1.457-.02-2.915-.008-4.372-.008Zm7.3-6.429h3.781l-1.879-5.063Z" fill="#1d1751"/>
            <path id="Path_108" data-name="Path 108" d="M-1314.263,52.376a22,22,0,0,1-2.225-.425,7.064,7.064,0,0,1-5.144-6.759c-.082-3.4-.027-6.812-.03-10.217a1.2,1.2,0,0,1,.046-.214h4.383v.64q0,4.217,0,8.433a9.667,9.667,0,0,0,.036,1.168,3.559,3.559,0,0,0,5.636,2.458,3.513,3.513,0,0,0,1.356-3.082c.019-2.975.008-5.95.009-8.925v-.7h4.373a4,4,0,0,1,.048.421c0,3.1.012,6.2-.005,9.294a8.329,8.329,0,0,1-1.182,4.456,7.149,7.149,0,0,1-5.412,3.321c-.262.036-.522.085-.783.128Z" fill="#1d1751"/>
            <path id="Path_109" data-name="Path 109" d="M-1350.032,52.006c-1.184,0-2.312.015-3.438-.014a.838.838,0,0,1-.533-.312q-3.474-4.314-6.927-8.645c-.133-.167-.278-.325-.509-.593v9.515h-4.415V34.73c1.208,0,2.41-.017,3.61.02.165.005.345.257.48.425q3.48,4.349,6.95,8.705c.088.111.188.214.379.43V34.75h4.4Z" fill="#1d1751"/>
            <path id="Path_110" data-name="Path 110" d="M-1432.136,51.947V34.777a1.3,1.3,0,0,1,.244-.051c2.707,0,5.417-.056,8.121.026a7.667,7.667,0,0,1,7.743,7.434,10.44,10.44,0,0,1-.791,5.352,7.2,7.2,0,0,1-6.571,4.416c-2.845.137-5.7.042-8.551.047A.822.822,0,0,1-1432.136,51.947Zm4.445-12.88v8.618c1.327,0,2.622.089,3.9-.022a3.382,3.382,0,0,0,3.077-2.528,5.782,5.782,0,0,0,.085-3.274,3.432,3.432,0,0,0-3.129-2.777C-1425.042,39-1426.337,39.067-1427.691,39.067Z" fill="#1d1751"/>
            <path id="Path_111" data-name="Path 111" d="M-1382,39v2.508h7.214v3.98h-7.191v2.22h8.76v4.256h-13.2v-17.2h13.194V39Z" fill="#1d1751"/>
            <path id="Path_112" data-name="Path 112" d="M-1343.292,34.758h15.166v4.235h-5.347V51.964h-4.435V39.033h-5.384Z" fill="#1d1751"/>
            <g id="Group_66" data-name="Group 66">
              <path id="Path_113" data-name="Path 113" d="M-1411.254,34.719h3.442c1.331,0,1.324,0,1.781,1.233q1.787,4.8,3.587,9.606c.083.224.181.442.3.735.978-2.6,1.929-5.124,2.881-7.651.44-1.168.869-2.341,1.336-3.5a.717.717,0,0,1,.489-.405c1.455-.033,2.91-.019,4.46-.019-.17.438-.308.811-.457,1.179-2.072,5.123-4.153,10.242-6.206,15.373a.97.97,0,0,1-1.1.753c-1.071,0-2.134,0-3.2-.034a.709.709,0,0,1-.532-.338q-3.394-8.33-6.748-16.676A1.479,1.479,0,0,1-1411.254,34.719Z" fill="#1aaf4b"/>
              <path id="Path_114" data-name="Path 114" d="M-1392.693,23.5a.719.719,0,0,0-.49.405c-.406,1.007-2.639,6.362-3.214,7.74a.855.855,0,0,0,0,.648l.023.057a.709.709,0,0,0,.532.337c1.067.032,2.095.038,3.2.034a.989.989,0,0,0,1.1-.753c2.053-5.131.785-2.185,2.857-7.308l.005-.011a.852.852,0,0,0-.791-1.169C-1390.573,23.475-1391.634,23.474-1392.693,23.5Z" fill="#1aaf4b"/>
            </g>
          </g>
        </g>
      </g>
      <g id="Group_70" data-name="Group 70">
        <path id="Path_115" data-name="Path 115" d="M-1270.128,34.291a3.1,3.1,0,0,1,1.174,1.175,3.271,3.271,0,0,1,.427,1.658,3.256,3.256,0,0,1-.437,1.667,3.2,3.2,0,0,1-1.189,1.193,3.247,3.247,0,0,1-1.66.436,3.226,3.226,0,0,1-1.658-.436,3.192,3.192,0,0,1-1.179-1.188,3.264,3.264,0,0,1-.432-1.653,3.258,3.258,0,0,1,.432-1.653,3.172,3.172,0,0,1,1.184-1.189,3.253,3.253,0,0,1,1.67-.437A3.312,3.312,0,0,1-1270.128,34.291Zm-.164,5.456a2.959,2.959,0,0,0,1.087-1.1,3.008,3.008,0,0,0,.4-1.528,3,3,0,0,0-.39-1.519,2.879,2.879,0,0,0-1.072-1.077,3.006,3.006,0,0,0-1.529-.4,2.98,2.98,0,0,0-1.531.4,2.892,2.892,0,0,0-1.082,1.091,3.015,3.015,0,0,0-.395,1.519,3,3,0,0,0,.395,1.517,2.918,2.918,0,0,0,1.077,1.092,2.948,2.948,0,0,0,1.519.4A2.934,2.934,0,0,0-1270.292,39.747Zm-.106-2.526a1.239,1.239,0,0,1-.646.432l.9,1.393h-.389l-.854-1.319a2.24,2.24,0,0,1-.243.01h-1.068v1.309h-.362V35.239h1.43a1.578,1.578,0,0,1,1.064.339,1.131,1.131,0,0,1,.395.9A1.2,1.2,0,0,1-1270.4,37.221Zm-.422-.046a.85.85,0,0,0,.3-.693.84.84,0,0,0-.3-.682,1.279,1.279,0,0,0-.837-.246h-1.05V37.42h1.05A1.279,1.279,0,0,0-1270.82,37.175Z" fill="#1d1751"/>
      </g>
    </g>
  </g>
</svg>
