<svg xmlns="http://www.w3.org/2000/svg" width="120" height="70" viewBox="0 0 120 70">
  <g id="Annual_Tax_Calculator" data-name="Annual Tax Calculator" transform="translate(-9325 -685)">
    <g id="Rectangle_8877" data-name="Rectangle 8877" transform="translate(9325 685)" fill="#fff" stroke="#707070" stroke-width="1" opacity="0">
      <rect width="120" height="70" stroke="none"/>
      <rect x="0.5" y="0.5" width="119" height="69" fill="none"/>
    </g>
    <g id="Annual_Tax_Calculator-2" data-name="Annual Tax Calculator" transform="translate(9279.647 687.164)">
      <g id="Group_17527" data-name="Group 17527" transform="translate(45.353 -0.164)">
        <path id="Path_33303" data-name="Path 33303" d="M45.414,59.74h66c.02.244.05.468.05.691,0,8.52.02,17.045,0,25.565a9.832,9.832,0,0,1-8.361,9.923,9.654,9.654,0,0,1-1.7.109q-22.964.007-45.933,0a9.833,9.833,0,0,1-9.962-8.321,9.235,9.235,0,0,1-.114-1.616q-.007-12.862,0-25.724C45.384,60.193,45.4,60.014,45.414,59.74Z" transform="translate(-45.37 -29.945)" fill="#f0efe8"/>
        <path id="Path_33304" data-name="Path 33304" d="M91.612,9.7c0-2.064-.015-4.073.01-6.083a5.2,5.2,0,0,1,.219-1.6A3.245,3.245,0,0,1,95.526-.117a3.269,3.269,0,0,1,2.7,3.143c.035,1.935.01,3.875.01,5.809v.92c1.129,0,2.179-.01,3.233,0a9.741,9.741,0,0,1,9.828,8.351,31.029,31.029,0,0,1,.04,4.815H45.381c.02-2.452-.3-4.9.791-7.187a9.69,9.69,0,0,1,8.709-5.959c1.2-.07,2.412-.01,3.7-.01,0-2.129,0-4.163,0-6.2a5.709,5.709,0,0,1,.129-1.3A3.209,3.209,0,0,1,62.058-.157a3.158,3.158,0,0,1,3.039,2.7,20.343,20.343,0,0,1,.094,2.7c.015,1.467,0,2.935,0,4.456C74.005,9.7,82.744,9.7,91.612,9.7Z" transform="translate(-45.353 0.164)" fill="#1d1751"/>
      </g>
      <circle id="Ellipse_10_00000133491661144951749430000007402011593135601341_" cx="2.437" cy="2.437" r="2.437" transform="translate(67.738 38.777)" fill="#1d1751"/>
      <g id="Group_17528" data-name="Group 17528" transform="translate(67.742 38.776)">
        <path id="Path_454_00000158751592875067712350000004753192273282975921_" d="M91.08,93.473,105.713,78.84a2.437,2.437,0,1,1,3.447,3.447h0L94.527,96.915a2.436,2.436,0,0,1-3.447-3.442Z" transform="translate(-90.367 -78.128)" fill="#1d1751"/>
      </g>
      <circle id="Ellipse_11_00000175314084731266322650000001667949406709228469_" cx="2.437" cy="2.437" r="2.437" transform="translate(82.371 53.405)" fill="#1d1751"/>
      <rect id="Rectangle_8876" data-name="Rectangle 8876" width="66.017" height="6.71" transform="translate(45.381 22.921)" fill="#1aaf4b"/>
    </g>
  </g>
</svg>
