<svg xmlns="http://www.w3.org/2000/svg" width="117.685" height="69.768" viewBox="0 0 117.685 69.768"><defs><style>.a{fill:#8ee16a;}.b{fill:#1aaf4b;}.c{fill:#1d1751;}</style></defs><g transform="translate(-1819.659 -4108.102)"><path class="a" d="M1936.373,4117.767l-8.627-8.682a3.509,3.509,0,0,0-4.871,0l-8.626,8.682a3.343,3.343,0,1,0,4.743,4.713l3.181-3.2c-1.859,10.545-7.313,20.41-16.013,28.837-18.542,17.96-48.834,26.35-79.056,21.9a3.344,3.344,0,1,0-.976,6.616,116.2,116.2,0,0,0,16.939,1.242c26.31,0,51.259-8.979,67.745-24.95a63.884,63.884,0,0,0,13.523-18.66,54.953,54.953,0,0,0,4.545-14.546l2.748,2.767a3.343,3.343,0,1,0,4.744-4.713Z"/><path class="b" d="M1936.373,4117.767l-8.627-8.682a3.509,3.509,0,0,0-4.871,0l-8.626,8.682a3.343,3.343,0,1,0,4.743,4.713l3.181-3.2c-1.859,10.545-7.313,20.41-16.013,28.837a77.869,77.869,0,0,1-25.674,16.184v7.132a85.471,85.471,0,0,0,30.326-18.513,63.866,63.866,0,0,0,13.523-18.66,54.953,54.953,0,0,0,4.545-14.546l2.749,2.767a3.343,3.343,0,1,0,4.743-4.713Z"/><path class="c" d="M1865.139,4134.523l-20.754-18.911a2.362,2.362,0,0,0-3.2,0l-20.754,18.911a2.372,2.372,0,0,0,1.6,4.125h3.314V4157.6a1.361,1.361,0,0,0,1.361,1.36h11.375a1.36,1.36,0,0,0,1.361-1.36v-11.5h6.685v11.5a1.361,1.361,0,0,0,1.361,1.361h11.375a1.36,1.36,0,0,0,1.36-1.361v-18.947h3.315a2.372,2.372,0,0,0,1.6-4.125Z"/></g></svg>