<?xml version="1.0" encoding="utf-8"?>
<!-- Generator: Adobe Illustrator 26.0.1, SVG Export Plug-In . SVG Version: 6.00 Build 0)  -->
<svg version="1.1" id="Layer_1" xmlns="http://www.w3.org/2000/svg" xmlns:xlink="http://www.w3.org/1999/xlink" x="0px" y="0px"
	 viewBox="0 0 223.6 132.56" style="enable-background:new 0 0 223.6 132.56;" xml:space="preserve">
<style type="text/css">
	.st0{fill:#F0EFE8;}
	.st1{fill:#8EE16A;}
	.st2{fill:#A9A795;}
	.st3{fill:#1AAF4B;}
</style>
<g>
	<path class="st0" d="M45.44,59.74c44.28,0,88.43,0,132.7,0c0.04,0.49,0.1,0.94,0.1,1.39c0,17.13,0.04,34.27-0.01,51.4
		c-0.03,10.22-6.78,18.2-16.81,19.95c-1.12,0.2-2.27,0.22-3.41,0.22c-30.78,0.01-61.57,0.03-92.35,0
		c-10.26-0.01-18.22-6.69-20.03-16.73c-0.19-1.06-0.23-2.17-0.23-3.25C45.39,95.48,45.39,78.24,45.39,61
		C45.38,60.65,45.41,60.29,45.44,59.74z"/>
	<path class="st1" d="M138.36,19.67c0-4.15-0.03-8.19,0.02-12.23c0.01-1.08,0.1-2.2,0.44-3.21c1.02-3.09,4.11-4.83,7.41-4.3
		c2.99,0.48,5.38,3.17,5.43,6.32c0.07,3.89,0.02,7.79,0.02,11.68c0,0.56,0,1.11,0,1.85c2.27,0,4.38-0.02,6.5,0
		c10.13,0.1,18.17,6.78,19.76,16.79c0.5,3.12,0.08,6.39,0.08,9.68c-44.11,0-88.3,0-132.61,0c0.04-4.93-0.6-9.85,1.59-14.45
		c3.5-7.39,9.29-11.51,17.51-11.98c2.42-0.14,4.85-0.02,7.43-0.02c0-4.28-0.01-8.37,0.01-12.46c0.01-0.87,0.05-1.78,0.26-2.62
		c0.8-3.09,3.49-5,6.73-4.87c3.07,0.13,5.67,2.32,6.11,5.42c0.25,1.78,0.18,3.62,0.19,5.43c0.03,2.95,0.01,5.9,0.01,8.96
		C102.96,19.67,120.53,19.67,138.36,19.67z"/>
</g>
<circle id="Ellipse_10_00000133491661144951749430000007402011593135601341_" class="st2" cx="95.26" cy="83.03" r="4.9"/>
<g>
	<path id="Path_454_00000158751592875067712350000004753192273282975921_" class="st2" d="M91.8,108.98l29.42-29.42
		c1.91-1.91,5.02-1.91,6.93,0c1.91,1.91,1.91,5.02,0,6.93l0,0L98.73,115.9c-1.91,1.91-5.02,1.91-6.93,0
		C89.89,114,89.89,110.89,91.8,108.98L91.8,108.98L91.8,108.98z"/>
</g>
<circle id="Ellipse_11_00000175314084731266322650000001667949406709228469_" class="st2" cx="124.68" cy="112.44" r="4.9"/>
<rect x="45.41" y="46.25" class="st3" width="132.73" height="13.49"/>
</svg>
