<?xml version="1.0" encoding="utf-8"?>
<!-- Generator: Adobe Illustrator 25.0.1, SVG Export Plug-In . SVG Version: 6.00 Build 0)  -->
<svg version="1.1" id="Layer_1" xmlns="http://www.w3.org/2000/svg" xmlns:xlink="http://www.w3.org/1999/xlink" x="0px" y="0px"
	 viewBox="0 0 110 64" style="enable-background:new 0 0 110 64;" xml:space="preserve">
<style type="text/css">
	.st0{fill:#D3CEB8;}
	.st1{fill:#AAA793;}
</style>
<g id="Group_904" transform="translate(170.388 126.16) rotate(90)">
	<g id="Group_481" transform="translate(15.673)">
		<path class="st0" d="M-124.9,77.3c0.1,9.3,7.3,16.8,16.1,16.7c8.8-0.1,15.9-7.7,15.8-17c-0.1-9.3-7.4-16.7-16.2-16.6
			C-117.9,60.6-124.9,68.1-124.9,77.3z M-104.8,68.8c3,1.7,4.9,4.9,4.9,8.4v0c0,3.4-2.1,6.5-4.9,8.2c-0.1,0.1-0.3,0.2-0.4,0.2
			c-0.9,0.3-1.9-0.3-2.1-1.3c-0.2-0.6-0.7-1.1-1.3-1.3c-0.9-0.2-1.9,0.4-2.1,1.4c0,0.1,0,0.3-0.1,0.4c-0.4,0.9-1.4,1.3-2.3,0.8
			c-3-1.6-4.8-4.8-5-8.5l0,0c0-3.4,2.1-6.5,4.9-8.2c0.1-0.1,0.3-0.2,0.4-0.2c0.9-0.3,1.9,0.3,2.1,1.3c0.2,0.6,0.7,1.1,1.3,1.3
			c0.9,0.2,1.9-0.4,2.1-1.4c0-0.1,0.2-0.3,0.2-0.3C-106.7,68.7-105.7,68.3-104.8,68.8z"/>
	</g>
	<g id="Group_484" transform="translate(0 23.883)">
		<g id="Group_483">
			<g id="Group_482">
				<path id="Path_448" class="st1" d="M-123.3,62.1c-1.4,0.1-2.5,1.5-2.3,3c0.1,1.5,1.4,2.6,2.8,2.5l3-0.3c-2,3.6-3.6,7.4-4.6,11.4
					c-1.5,6.1-2,12.5-1.4,18.8c0.8,8.4,3.1,16.5,6.7,24c0.6,1.4,2.2,1.9,3.5,1.2c0.3-0.2,0.6-0.4,0.8-0.7l0,0c0.7-0.8,0.8-2,0.3-3
					c-3.3-6.9-5.4-14.4-6.2-22c-0.9-9.8,0.9-18.9,5.1-26.4l0.3,3.7c0.1,1.5,1.3,2.6,2.6,2.5c1.5-0.1,2.6-1.5,2.5-3c0,0,0,0,0-0.1
					l-0.7-9.8c-0.1-1.5-1.4-2.7-2.9-2.6L-123.3,62.1L-123.3,62.1z"/>
			</g>
		</g>
	</g>
	<g id="Group_487" transform="translate(48.873 23.883)">
		<g id="Group_486">
			<g id="Group_485">
				<path id="Path_449" class="st1" d="M-113.9,122.1c1.4-0.1,2.5-1.5,2.3-3c-0.1-1.5-1.4-2.6-2.8-2.5l-3,0.3
					c2-3.6,3.6-7.4,4.6-11.4c1.5-6.1,2-12.5,1.4-18.8c-0.8-8.4-3.1-16.5-6.7-24c-0.6-1.4-2.2-1.9-3.5-1.2c-0.3,0.2-0.6,0.4-0.8,0.7
					l0,0c-0.7,0.8-0.8,2-0.3,3c3.3,6.9,5.4,14.4,6.2,22c0.9,9.8-0.9,18.9-5.1,26.4l-0.3-3.7c-0.1-1.5-1.3-2.6-2.6-2.5
					c-1.5,0.1-2.6,1.5-2.5,3c0,0,0,0,0,0.1l0.7,9.8c0.1,1.5,1.4,2.7,2.9,2.6L-113.9,122.1L-113.9,122.1z"/>
			</g>
		</g>
	</g>
</g>
<path class="st0" d="M17.3,16.9C8,17,0.5,24.2,0.6,33c0.1,8.8,7.7,15.9,17,15.8c9.3-0.1,16.7-7.4,16.6-16.2
	C34,23.9,26.5,16.9,17.3,16.9z M25.8,37c-1.7,3-4.9,4.9-8.4,4.9l0-0.2c-3.4,0-6.5-1.8-8.2-4.7C9.1,36.9,9,36.7,9,36.6
	c-0.3-0.9,0.3-1.9,1.3-2.1c0.6-0.2,1.1-0.7,1.3-1.3c0.2-0.9-0.4-1.9-1.4-2.1c-0.1,0-0.3,0-0.4-0.1c-0.9-0.4-1.3-1.4-0.8-2.3
	c1.6-3,4.8-4.8,8.5-5l0,0.2c3.4,0,6.5,1.9,8.2,4.7c0.1,0.1,0.2,0.3,0.2,0.4c0.3,0.9-0.3,1.9-1.3,2.1c-0.6,0.2-1.1,0.7-1.3,1.3
	c-0.2,0.9,0.4,1.9,1.4,2.1c0.1,0,0.2,0,0.3,0.2C25.9,35.1,26.3,36.1,25.8,37z"/>
</svg>
