<?xml version="1.0" encoding="utf-8"?>
<!-- Generator: Adobe Illustrator 25.0.1, SVG Export Plug-In . SVG Version: 6.00 Build 0)  -->
<svg version="1.1" id="Layer_1" xmlns="http://www.w3.org/2000/svg" xmlns:xlink="http://www.w3.org/1999/xlink" x="0px" y="0px"
	 viewBox="0 0 110 64" style="enable-background:new 0 0 110 64;" xml:space="preserve">
<style type="text/css">
	.st0{fill:#19AE4A;}
	.st1{fill:#8EE16A;}
	.st2{fill:#F0EFE8;}
</style>
<g id="Group_918" transform="translate(398.812 165.41)">
	<g id="Group_914-5" transform="translate(181.528 376.649)">
		<g id="Group_921" transform="translate(0)">
			<g id="Group_471-5">
				<path id="Path_429-5" class="st0" d="M-471.3-533.2l-8.3-8c-1.3-1.2-3.4-1.2-4.7,0l-8.3,8c-1.2,1.2-1.2,3.2,0,4.3
					c1.3,1.2,3.3,1.2,4.5,0l3.1-2.9c-1.8,9.7-7,18.8-15.4,26.5c-17.9,16.5-47,24.2-76.2,20.1c-1.8-0.3-3.4,0.9-3.7,2.6
					s0.9,3.3,2.7,3.5h0.1c5.4,0.8,10.9,1.1,16.3,1.1c25.3,0,49.4-8.3,65.3-22.9c5.4-4.9,9.8-10.7,13-17.2c2.1-4.2,3.6-8.7,4.4-13.4
					l2.6,2.5c1.2,1.2,3.3,1.3,4.6,0.1C-470.1-530-470-531.9-471.3-533.2L-471.3-533.2L-471.3-533.2z"/>
				<path id="Path_430-5" class="st1" d="M-471.3-533.2l-8.3-8c-1.3-1.2-3.4-1.2-4.7,0l-8.3,8c-1.2,1.2-1.2,3.1,0,4.3s3.3,1.2,4.5,0
					l0,0l3-2.9c-1.8,9.7-7,18.8-15.3,26.5c-7.1,6.5-15.5,11.5-24.6,14.9v6.6c10.8-3.7,20.7-9.5,29.1-17c5.4-4.9,9.8-10.7,13-17.2
					c2.1-4.2,3.6-8.7,4.4-13.4l2.6,2.5c1.2,1.2,3.3,1.2,4.5,0l0,0C-470.1-530.1-470.1-532-471.3-533.2L-471.3-533.2z"/>
			</g>
			<g id="Group_920" transform="translate(6.445 2.911)">
				<g id="Group_919">
					<path id="Path_434" class="st2" d="M-541.3-542.2c-4.8,0-9,3-10.3,7.4h-5.1v-2.9c0-0.8-0.7-1.5-1.5-1.5l0,0h-3.1
						c-0.9,0-1.5,0.7-1.5,1.5l0,0v3h-3.1c-0.9,0-1.5,0.7-1.5,1.5v2.9c0,0.8,0.7,1.5,1.5,1.5h14.4c1.7,5.4,7.7,8.5,13.4,6.9
						s8.9-7.4,7.2-12.8C-532.3-539.2-536.6-542.2-541.3-542.2L-541.3-542.2z M-541.3-527.4c-2.6,0-4.6-2-4.6-4.4s2.1-4.4,4.6-4.4
						c2.6,0,4.6,2,4.6,4.4l0,0C-536.7-529.4-538.8-527.4-541.3-527.4L-541.3-527.4L-541.3-527.4z"/>
					<path id="Path_435" class="st2" d="M-566-528.9h14.4c1.7,5.5,7.7,8.6,13.4,7c4.6-1.3,7.8-5.3,7.7-9.9h-6.2c0,2.4-2,4.5-4.6,4.5
						s-4.7-1.9-4.7-4.4v-0.1h-21.6v1.5C-567.6-529.5-566.9-528.9-566-528.9z"/>
					<path id="Path_436" class="st2" d="M-527.9-515.3c-2.3-1.7-5.6-1.6-7.8,0.2l-4.6,3.7c-1.4,1.1-3.1,1.7-4.9,1.7h-11.5
						c-0.9,0-1.5-0.7-1.5-1.5s0.7-1.5,1.5-1.5h12.4c0-3.3-2.8-5.9-6.2-5.9l0,0c-2.9,0-5.8-0.7-8.4-2c-1.2-0.6-2.5-1-3.9-1
						c-2.1,0-4.3-0.4-7.7,2.9l-3.1,2.9l-1.4,10.3c8,2.4,16.2,3.8,24.6,4.3c2.8,0.2,4.8,0.2,6.1,0.2c0.3,0,0.7-0.1,0.9-0.3l15.7-11.8
						c0.4-0.3,0.6-0.7,0.6-1.2C-527.4-514.6-527.6-515-527.9-515.3z"/>
					<path id="Path_437" class="st2" d="M-544.4-512.7c0-3.3-2.8-5.9-6.2-5.9l0,0v5.9H-544.4z"/>
					<path id="Path_438" class="st2" d="M-543.6-501.2l15.7-11.8c0.4-0.3,0.6-0.7,0.6-1.2c0-0.4-0.2-0.8-0.6-1.1
						c-2.3-1.7-5.6-1.6-7.8,0.2l-4.6,3.7c-1.4,1.1-3.1,1.7-4.9,1.7h-5.3v8.7c2.8,0.2,4.8,0.2,6.1,0.2
						C-544.2-500.9-543.8-501-543.6-501.2L-543.6-501.2z"/>
					<path id="Path_439" class="st2" d="M-572.2-500.9h-6.3c-0.9,0-1.5-0.7-1.5-1.5v-14.7c0-0.8,0.7-1.5,1.5-1.5h7.8v16.2
						C-570.7-501.5-571.4-500.9-572.2-500.9z"/>
				</g>
			</g>
		</g>
	</g>
</g>
</svg>
