<?xml version="1.0" encoding="utf-8"?>
<!-- Generator: Adobe Illustrator 26.0.1, SVG Export Plug-In . SVG Version: 6.00 Build 0)  -->
<svg version="1.1" id="Layer_1" xmlns="http://www.w3.org/2000/svg" xmlns:xlink="http://www.w3.org/1999/xlink" x="0px" y="0px"
	 viewBox="0 0 223.6 132.56" style="enable-background:new 0 0 223.6 132.56;" xml:space="preserve">
<style type="text/css">
	.st0{fill:#F0EFE8;}
	.st1{fill:#8EE16A;}
	.st2{fill:#1AAF4B;}
</style>
<path class="st0" d="M94.37,78.93c-6.65-6.6-6.67-17.34-0.07-23.99c2.05-2.12,4.55-3.56,7.2-4.35c-5.78-1.72-12.26-0.24-16.71,4.35
	c-6.6,6.65-6.58,17.39,0.07,23.99c3.16,3.14,7.44,4.92,11.9,4.94c1.66,0,3.26-0.25,4.78-0.7C98.85,82.38,96.38,80.93,94.37,78.93z"
	/>
<g>
	<path class="st1" d="M97.98,106.93c-22.28,0-40.4-18.12-40.4-40.4c0-20.69,15.64-37.79,35.72-40.12l-2.23,2.69
		c-2.18,2.88-1.61,7,1.32,9.22c1.18,0.87,2.56,1.3,3.94,1.3c2.02,0,4.02-0.91,5.32-2.63l11.28-14.92c2.18-3,1.58-7.13-1.4-9.41
		L96.46,1.62c-2.93-2.13-7.08-1.51-9.25,1.39c-2.16,2.89-1.57,7,1.38,9.21l1.97,1.44C64.62,17.28,44.58,39.6,44.58,66.53
		c0,29.44,23.96,53.4,53.4,53.4c3.59,0,6.5-2.91,6.5-6.5S101.57,106.93,97.98,106.93z"/>
	<path class="st2" d="M179.02,65.24c0-29.44-23.96-53.4-53.4-53.4c-3.59,0-6.5,2.91-6.5,6.5s2.91,6.5,6.5,6.5
		c22.28,0,40.4,18.12,40.4,40.4c0,20.72-15.69,37.85-35.81,40.13l2.18-2.54c1.08-1.38,1.56-3.09,1.35-4.83
		c-0.21-1.74-1.09-3.29-2.52-4.41c-2.88-2.21-7.04-1.67-9.28,1.19l-11.51,14.74c-2.23,2.97-1.69,7.1,1.25,9.43l14.89,11.27
		c1.19,0.9,2.6,1.33,3.99,1.33c2,0,3.97-0.89,5.28-2.57c1.07-1.38,1.53-3.1,1.31-4.84s-1.11-3.28-2.55-4.39l-2.07-1.57
		C158.72,114.78,179.02,92.35,179.02,65.24z"/>
</g>
<path class="st0" d="M110.94,78.93c-6.65-6.6-6.67-17.34-0.07-23.99c2.05-2.12,4.55-3.56,7.2-4.35c-5.78-1.72-12.26-0.24-16.71,4.35
	c-6.6,6.65-6.58,17.39,0.07,23.99c3.16,3.14,7.44,4.92,11.9,4.94c1.66,0,3.26-0.25,4.78-0.7C115.42,82.38,112.95,80.93,110.94,78.93
	z"/>
<path id="Path_458_00000058557786512725222540000013424610952231526276_" class="st0" d="M130.57,83.87
	c9.33-0.01,16.89-7.57,16.9-16.9c0-4.99-2.18-9.74-5.96-12.98c-6.68-5.81-16.74-5.4-22.91,0.96c-6.6,6.65-6.58,17.39,0.07,23.99
	C121.83,82.07,126.11,83.85,130.57,83.87L130.57,83.87z"/>
</svg>
