<svg xmlns="http://www.w3.org/2000/svg" width="120" height="70" viewBox="0 0 120 70">
  <g id="Cashflow_Calculator" data-name="Cashflow Calculator" transform="translate(-9325 -685)">
    <g id="Rectangle_8877" data-name="Rectangle 8877" transform="translate(9325 685)" fill="#fff" stroke="#707070" stroke-width="1" opacity="0">
      <rect width="120" height="70" stroke="none"/>
      <rect x="0.5" y="0.5" width="119" height="69" fill="none"/>
    </g>
    <g id="Cashflow_Calculator-2" data-name="Cashflow Calculator" transform="translate(9280.42 687.646)">
      <path id="Path_33305" data-name="Path 33305" d="M87.013,64.213a8.365,8.365,0,0,1-.035-11.83,8.161,8.161,0,0,1,3.551-2.145,8.2,8.2,0,0,0-8.24,2.145A8.347,8.347,0,0,0,90.549,66.3,8.348,8.348,0,0,1,87.013,64.213Z" transform="translate(-17.88 -25.111)" fill="#1d1751"/>
      <g id="Group_17529" data-name="Group 17529" transform="translate(44.58 0.354)">
        <path id="Path_33306" data-name="Path 33306" d="M70.913,52.91A19.92,19.92,0,0,1,68.605,13.2l-1.1,1.327A3.238,3.238,0,0,0,70.1,19.717a3.282,3.282,0,0,0,2.623-1.3l5.563-7.358a3.337,3.337,0,0,0-.69-4.64L70.164.978a3.3,3.3,0,0,0-4.561.685,3.242,3.242,0,0,0,.681,4.542l.971.71a26.33,26.33,0,0,0,3.659,52.405,3.205,3.205,0,0,0,0-6.411Z" transform="translate(-44.58 -0.354)" fill="#8ee16a"/>
        <path id="Path_33307" data-name="Path 33307" d="M143.559,38.173A26.366,26.366,0,0,0,117.225,11.84a3.205,3.205,0,0,0,0,6.411,19.92,19.92,0,0,1,2.263,39.712l1.075-1.253a3.227,3.227,0,0,0-.577-4.557,3.288,3.288,0,0,0-4.576.587l-5.676,7.269a3.337,3.337,0,0,0,.616,4.65l7.343,5.558a3.255,3.255,0,0,0,1.968.656,3.294,3.294,0,0,0,2.6-1.267,3.231,3.231,0,0,0-.611-4.552l-1.021-.774A26.365,26.365,0,0,0,143.559,38.173Z" transform="translate(-77.262 -6.176)" fill="#1aaf4b"/>
      </g>
      <path id="Path_33308" data-name="Path 33308" d="M103.583,64.213a8.365,8.365,0,0,1-.035-11.83,8.162,8.162,0,0,1,3.551-2.145,8.2,8.2,0,0,0-8.24,2.145,8.347,8.347,0,0,0,8.26,13.921A8.348,8.348,0,0,1,103.583,64.213Z" transform="translate(-26.279 -25.111)" fill="#1d1751"/>
      <path id="Path_458_00000058557786512725222540000013424610952231526276_" d="M122,66.648a8.343,8.343,0,0,0,8.334-8.334,8.436,8.436,0,0,0-2.939-6.4,8.222,8.222,0,0,0-11.3.473A8.364,8.364,0,0,0,122,66.648Z" transform="translate(-35.017 -25.109)" fill="#1d1751"/>
    </g>
  </g>
</svg>
