<svg xmlns="http://www.w3.org/2000/svg" width="40" height="40" viewBox="0 0 40 40"><defs><style>.a{fill:#1d1751;}</style></defs><g transform="translate(-24 -24)"><path class="a" d="M149.9,55.118a2.069,2.069,0,0,0,2.926,0h0l7.8-7.8A2.069,2.069,0,0,0,157.7,44.39l-4.271,4.271V26.069a2.069,2.069,0,1,0-4.138,0V48.66l-4.271-4.271a2.069,2.069,0,1,0-2.926,2.926Z" transform="translate(-107.362)"/><path class="a" d="M61.931,232a2.069,2.069,0,0,0-2.069,2.069v15.862H28.138V234.069a2.069,2.069,0,1,0-4.138,0v16.552a3.448,3.448,0,0,0,3.448,3.448h33.1A3.448,3.448,0,0,0,64,250.621V234.069A2.069,2.069,0,0,0,61.931,232Z" transform="translate(0 -190.069)"/></g></svg>