<svg xmlns="http://www.w3.org/2000/svg" width="110.057" height="67.313" viewBox="0 0 110.057 67.313"><defs><style>.a{fill:#8ee16a;}.b{fill:#1aaf4b;}.c{fill:#1d1751;}</style></defs><g transform="translate(-8795.723 -158.263)"><path class="a" d="M8904.842,167.59l-8.322-8.376a3.381,3.381,0,0,0-4.7,0l-8.323,8.376a3.226,3.226,0,0,0,4.577,4.547l3.068-3.089c-1.794,10.174-7.057,19.691-15.449,27.822-17.89,17.328-47.115,25.423-76.273,21.124a3.226,3.226,0,0,0-.941,6.383,112.055,112.055,0,0,0,16.343,1.2c25.384,0,49.454-8.663,65.359-24.072a61.6,61.6,0,0,0,13.047-18,52.958,52.958,0,0,0,4.386-14.034l2.651,2.67a3.226,3.226,0,0,0,4.577-4.547Z"/><path class="b" d="M8904.842,167.59l-8.322-8.376a3.381,3.381,0,0,0-4.7,0l-8.323,8.376a3.226,3.226,0,0,0,4.577,4.547l3.068-3.089c-1.794,10.174-7.057,19.691-15.449,27.822a75.118,75.118,0,0,1-24.771,15.614v6.882a82.475,82.475,0,0,0,29.259-17.862,61.61,61.61,0,0,0,13.046-18,52.958,52.958,0,0,0,4.386-14.034l2.651,2.67a3.226,3.226,0,0,0,4.577-4.547Z"/><path class="c" d="M8834.711,161.818a10.852,10.852,0,0,0-10.382,7.777h-5.172v-3.111a1.555,1.555,0,0,0-1.556-1.555h-3.11a1.555,1.555,0,0,0-1.556,1.555V169.6h-3.11a1.555,1.555,0,0,0-1.556,1.555v3.111a1.555,1.555,0,0,0,1.556,1.555h14.5a10.865,10.865,0,1,0,10.382-14Zm0,15.554a4.666,4.666,0,1,1,4.666-4.667A4.667,4.667,0,0,1,8834.711,177.372Z"/><path class="c" d="M8809.825,175.816h14.5a10.858,10.858,0,0,0,21.27-3.111h-6.222a4.666,4.666,0,1,1-9.332,0H8808.27v1.556A1.555,1.555,0,0,0,8809.825,175.816Z"/><path class="c" d="M8848.238,190.161a6.235,6.235,0,0,0-7.9.2l-4.652,3.873a7.777,7.777,0,0,1-4.974,1.8h-11.556a1.555,1.555,0,1,1,0-3.111H8831.6a6.22,6.22,0,0,0-6.221-6.221,18.687,18.687,0,0,1-8.5-2.086,8.631,8.631,0,0,0-3.945-1.025c-2.087,0-4.312-.4-7.776,3.111l-3.111,3.111-1.4,10.819a107.1,107.1,0,0,0,24.729,4.563c2.785.168,4.879.171,6.118.171a1.51,1.51,0,0,0,.952-.337l15.775-12.443a1.549,1.549,0,0,0,.587-1.275A1.713,1.713,0,0,0,8848.238,190.161Z"/><path class="c" d="M8831.6,192.925a6.22,6.22,0,0,0-6.221-6.221v6.221Z"/><path class="c" d="M8832.449,205.031l15.775-12.443a1.549,1.549,0,0,0,.587-1.275,1.713,1.713,0,0,0-.573-1.152,6.234,6.234,0,0,0-7.9.2l-4.652,3.873a7.777,7.777,0,0,1-4.974,1.8h-5.334V205.2c2.785.168,4.879.171,6.118.171a1.51,1.51,0,0,0,.952-.337Z"/><path class="c" d="M8803.6,205.368h-6.324a1.556,1.556,0,0,1-1.557-1.555V188.259a1.556,1.556,0,0,1,1.557-1.555h7.88v17.109A1.555,1.555,0,0,1,8803.6,205.368Z"/></g></svg>