<svg xmlns="http://www.w3.org/2000/svg" width="44.615" height="40" viewBox="0 0 44.615 40"><defs><style>.a{fill:#1d1751;}</style></defs><g transform="translate(-737.847 -137.768)"><g transform="translate(737.847 137.768)"><path class="a" d="M26.307,78.769a2.3,2.3,0,0,0,1.632-.676L40.922,65.11,46.214,70.4a2.308,2.308,0,0,0,3.264,0h0L64,55.88v5.2a2.308,2.308,0,0,0,4.615,0l0-10.769A2.308,2.308,0,0,0,66.307,48H55.538a2.308,2.308,0,0,0,0,4.615h5.2l-12.89,12.89-5.291-5.291a2.308,2.308,0,0,0-3.264,0h0L24.675,74.83a2.308,2.308,0,0,0,1.632,3.94Z" transform="translate(-23.999 -48)"/><path class="a" d="M66.308,416h-40a2.308,2.308,0,0,0,0,4.615h40a2.308,2.308,0,0,0,0-4.615Z" transform="translate(-24 -380.615)"/></g></g></svg>