<svg xmlns="http://www.w3.org/2000/svg" width="40" height="40" viewBox="0 0 40 40"><defs><style>.a{fill:#1d1751;}</style></defs><g transform="translate(-607.331 -114.768)"><g transform="translate(607.331 114.768)"><path class="a" d="M82.667,80.667v-26a2,2,0,0,0-.586-1.414l-10-10a2,2,0,0,0-1.414-.586h-26a2,2,0,0,0-2,2v36a2,2,0,0,0,2,2h36A2,2,0,0,0,82.667,80.667Zm-14-2h-12v-10h12Zm10,0h-6v-12a2,2,0,0,0-2-2h-16a2,2,0,0,0-2,2v12h-6v-32H69.839L78.667,55.5Z" transform="translate(-42.667 -42.667)"/><path class="a" d="M157.783,170.667h-6.76a1.69,1.69,0,1,0,0,3.38h6.76a1.69,1.69,0,1,0,0-3.38Z" transform="translate(-138.669 -158.46)"/></g></g></svg>