<svg xmlns="http://www.w3.org/2000/svg" width="69.409" height="69.408" viewBox="0 0 69.409 69.408"><defs><style>.a{fill:#1aaf4b;}.b{fill:#f0efe8;}.c{fill:#1d1751;}</style></defs><g transform="translate(-11828.077 -158.703)"><path class="a" d="M11869.017,219.977h-38.9a2.055,2.055,0,0,0-1.757,3.1,10.17,10.17,0,0,0,8.771,5.033h33.967a10.062,10.062,0,0,1-2.086-6.1Z"/><path class="b" d="M11836.347,166.836v49.075h36.737v6.1a6.1,6.1,0,0,0,12.2,0V162.77a8.043,8.043,0,0,1,1.131-4.067h-41.936A8.133,8.133,0,0,0,11836.347,166.836Z"/><path class="a" d="M11897.486,179.037V162.77a4.067,4.067,0,0,0-8.135,0v16.267h8.135"/><path class="c" d="M11878.464,209.661h-35.3a2.509,2.509,0,0,1,0-5.019h35.3a2.509,2.509,0,0,1,0,5.019Z"/><circle class="c" cx="2.509" cy="2.509" r="2.509" transform="translate(11850.695 166.836)"/><path class="c" d="M11851.43,182.627l15.057-15.055a2.509,2.509,0,0,1,3.548,3.548l-15.056,15.055a2.509,2.509,0,0,1-3.549-3.548Z"/><circle class="c" cx="2.509" cy="2.509" r="2.509" transform="translate(11865.751 181.892)"/><path class="c" d="M11843.167,194.6h35.3a2.509,2.509,0,0,1,0,5.019h-35.3a2.509,2.509,0,0,1,0-5.019Z"/></g></svg>